# xmcd
#
# Track frame offsets: 
#        150
#        17777
#        38822
#        55741
#        82336
#        98943
#        117254
#        135480
#        145003
#        161495
#        180011
#        197943
#        206076
#
# Disc length: 2918 seconds
#
# Revision: 1
# Processed by: cddbd v1.5.2PL0 Copyright (c) Steve Scherf et al.
# Submitted via: ExactAudioCopyFreeDBPlugin 1.0
#
DISCID=af0b640d
DTITLE=Jimmy Mayes - All My Best - Chicago Southside Soul and Blues
DYEAR=2012
DGENRE=Blues
TTITLE0=Messing With the Kid
TTITLE1=Something About You I Like
TTITLE2=Bright Lights Big City
TTITLE3=Substitute For You
TTITLE4=Tramp
TTITLE5=Sweet Home Chicago
TTITLE6=Love Trap
TTITLE7=The New Monkey Shine
TTITLE8=Going To New York
TTITLE9=El Funky
TTITLE10=Baby What You Want Me To Do
TTITLE11=Mumblin'
TTITLE12=Sock It To Me Drummer
EXTD=
EXTT0=
EXTT1=
EXTT2=
EXTT3=
EXTT4=
EXTT5=
EXTT6=
EXTT7=
EXTT8=
EXTT9=
EXTT10=
EXTT11=
EXTT12=
PLAYORDER=
